<svg width="47" height="46" viewBox="0 0 47 46" fill="none" xmlns="http://www.w3.org/2000/svg">
<path fill-rule="evenodd" clip-rule="evenodd" d="M9.88429 4.12438C8.2309 5.27114 6.73578 6.62697 5.43788 8.15323C10.7417 7.66481 17.48 8.46234 25.3031 12.3423C33.6571 16.4854 40.3841 16.6255 45.0658 15.7297C44.641 14.454 44.1061 13.2278 43.4727 12.0622C38.1134 12.6229 31.2428 11.8808 23.2358 7.90973C18.1512 5.38801 13.6692 4.34923 9.88429 4.12438ZM40.342 7.64225C36.1098 2.95182 29.9593 0 23.1137 0C21.1034 0 19.1528 0.25461 17.2933 0.733062C19.8118 1.41468 22.4872 2.41189 25.3031 3.80845C31.1654 6.71587 36.2266 7.65201 40.342 7.64225ZM46.0667 20.2078C40.4108 21.3156 32.6005 21.0881 23.2358 16.4436C14.4807 12.1014 7.51247 12.1561 2.81283 13.1921C2.57025 13.2455 2.33338 13.3017 2.10223 13.3601C1.48693 14.6875 0.995781 16.0833 0.643374 17.5327C1.01976 17.433 1.4087 17.3382 1.80999 17.2497C7.51148 15.9929 15.5672 16.0475 25.3031 20.8761C34.0582 25.2182 41.0264 25.1635 45.7262 24.1276C45.8871 24.0922 46.0458 24.0555 46.2018 24.0177C46.2189 23.6562 46.2275 23.2925 46.2275 22.9268C46.2275 22.0069 46.173 21.0995 46.0667 20.2078ZM45.4472 28.856C39.8461 29.8273 32.2633 29.4545 23.2358 24.9774C14.4807 20.6353 7.51247 20.6899 2.81283 21.7259C1.76965 21.9557 0.831216 22.2358 0.00338617 22.5314C0.00112911 22.6629 0 22.7947 0 22.9268C0 35.5889 10.3484 45.8536 23.1137 45.8536C33.8121 45.8536 42.8128 38.6442 45.4472 28.856Z" fill="#7F57F1"/>
</svg>
