<svg width="44" height="44" viewBox="0 0 44 44" fill="none" xmlns="http://www.w3.org/2000/svg">
<path fill-rule="evenodd" clip-rule="evenodd" d="M21.7647 43.9024C33.7851 43.9024 43.5294 34.0745 43.5294 21.9512C43.5294 9.82789 33.7851 0 21.7647 0C9.74437 0 0 9.82789 0 21.9512C0 34.0745 9.74437 43.9024 21.7647 43.9024ZM25.124 16.9601C26.9793 15.0889 26.9793 12.0551 25.124 10.1839C23.2687 8.31268 20.2607 8.31268 18.4054 10.1839C16.5502 12.0551 16.5502 15.0889 18.4054 16.9601L21.7647 20.3482L25.124 16.9601ZM26.7134 25.3393C28.5687 27.2106 31.5767 27.2106 33.4321 25.3393C35.2873 23.4681 35.2873 20.4343 33.4321 18.5631C31.5767 16.692 28.5687 16.692 26.7134 18.5631L23.3541 21.9513L26.7134 25.3393ZM25.124 33.7186C26.9793 31.8473 26.9793 28.8136 25.124 26.9423L21.7647 23.5543L18.4054 26.9423C16.5502 28.8136 16.5502 31.8473 18.4054 33.7186C20.2607 35.5898 23.2687 35.5898 25.124 33.7186ZM10.0973 25.3393C8.24206 23.4681 8.24206 20.4343 10.0973 18.5631C11.9527 16.692 14.9607 16.692 16.816 18.5631L20.1753 21.9513L16.816 25.3393C14.9607 27.2106 11.9527 27.2106 10.0973 25.3393Z" fill="#7F57F1"/>
</svg>
