<svg width="47" height="47" viewBox="0 0 47 47" fill="none" xmlns="http://www.w3.org/2000/svg">
<path fill-rule="evenodd" clip-rule="evenodd" d="M23.2872 0C36.1483 0 46.5743 10.4337 46.5743 23.3043C46.5743 36.1751 36.1483 46.6088 23.2872 46.6088C10.426 46.6088 0 36.1751 0 23.3043C0 10.4337 10.426 0 23.2872 0ZM45.6804 23.3043C45.6804 10.9277 35.6546 0.894424 23.2872 0.894424C22.2895 0.894424 21.3073 0.959704 20.3441 1.08623C20.9664 1.03178 21.5961 1.00399 22.2324 1.00399C34.0502 1.00399 43.6304 10.5913 43.6304 22.4178C43.6304 34.2442 34.0502 43.8315 22.2324 43.8315C11.0442 43.8315 1.86147 35.2385 0.914937 24.2875C1.42913 36.208 11.2488 45.7143 23.2872 45.7143C35.6546 45.7143 45.6804 35.681 45.6804 23.3043ZM42.7365 22.4178C42.7365 11.0852 33.5566 1.89842 22.2324 1.89842C21.313 1.89842 20.4076 1.959 19.5201 2.07636C20.0666 2.03034 20.6194 2.00687 21.1778 2.00687C31.9522 2.00687 40.6865 10.7477 40.6865 21.53C40.6865 32.3124 31.9522 41.0532 21.1778 41.0532C10.9903 41.0532 2.62665 33.2387 1.74574 23.2728C2.19363 34.2088 11.1945 42.9371 22.2324 42.9371C33.5566 42.9371 42.7365 33.7503 42.7365 22.4178ZM21.1778 2.9013C31.4585 2.9013 39.7928 11.2417 39.7928 21.53C39.7928 31.8184 31.4585 40.1587 21.1778 40.1587C11.1352 40.1587 2.95001 32.2003 2.57618 22.2418C3.38329 31.2304 10.9312 38.2748 20.1232 38.2748C29.8535 38.2748 37.7416 30.381 37.7416 20.6434C37.7416 10.9058 29.8535 3.01198 20.1232 3.01198C19.6198 3.01198 19.1213 3.03311 18.6287 3.07452C19.4621 2.96031 20.313 2.9013 21.1778 2.9013ZM36.8478 20.6434C36.8478 11.3999 29.3599 3.90641 20.1232 3.90641C19.3428 3.90641 18.5748 3.9599 17.8229 4.06342C18.2334 4.03126 18.6484 4.01488 19.0673 4.01488C27.7544 4.01488 34.7966 11.0623 34.7966 19.7557C34.7966 28.4491 27.7544 35.4965 19.0673 35.4965C10.8909 35.4965 4.17167 29.2532 3.41005 21.2705C3.73956 30.2235 11.0962 37.3804 20.1232 37.3804C29.3599 37.3804 36.8478 29.8871 36.8478 20.6434ZM19.0673 4.9093C27.2607 4.9093 33.9027 11.5563 33.9027 19.7557C33.9027 27.9552 27.2607 34.6021 19.0673 34.6021C11.0354 34.6021 4.49422 28.2145 4.23962 20.2385C4.92726 27.2444 10.8312 32.7183 18.0127 32.7183C25.6564 32.7183 31.8527 26.5172 31.8527 18.868C31.8527 11.2187 25.6564 5.01775 18.0127 5.01775C17.6622 5.01775 17.3147 5.03079 16.9707 5.05641C17.6557 4.95945 18.3556 4.9093 19.0673 4.9093ZM30.959 18.868C30.959 11.7127 25.1627 5.91218 18.0127 5.91218C17.36 5.91218 16.7187 5.96052 16.0919 6.0538C16.378 6.03329 16.6668 6.02286 16.9581 6.02286C23.5577 6.02286 28.9078 11.3769 28.9078 17.9813C28.9078 24.5859 23.5577 29.9399 16.9581 29.9399C10.7739 29.9399 5.6869 25.2387 5.07098 19.2127C5.25358 26.2087 10.9779 31.8239 18.0127 31.8239C25.1627 31.8239 30.959 26.0233 30.959 18.868ZM16.9581 6.91729C23.0641 6.91729 28.014 11.8708 28.014 17.9813C28.014 24.092 23.0641 29.0455 16.9581 29.0455C10.9298 29.0455 6.02835 24.2172 5.90457 18.2141C6.46145 23.2472 10.7257 27.1616 15.9035 27.1616C21.4597 27.1616 25.9639 22.654 25.9639 17.0937C25.9639 11.5333 21.4597 7.02574 15.9035 7.02574C15.691 7.02574 15.48 7.03233 15.2708 7.04533C15.8209 6.96102 16.3844 6.91729 16.9581 6.91729ZM25.0702 17.0937C25.0702 12.0273 20.9661 7.92017 15.9035 7.92017C15.3951 7.92017 14.8963 7.96159 14.4104 8.04124C14.5552 8.0336 14.7009 8.02974 14.8477 8.02974C19.3605 8.02974 23.0189 11.6908 23.0189 16.2071C23.0189 20.7233 19.3605 24.3844 14.8477 24.3844C10.6748 24.3844 7.23254 21.2541 6.7375 17.2121C6.80088 22.224 10.8804 26.2672 15.9035 26.2672C20.9661 26.2672 25.0702 22.1601 25.0702 17.0937ZM14.8477 8.92416C18.8669 8.92416 22.1252 12.1848 22.1252 16.2071C22.1252 20.2293 18.8669 23.4899 14.8477 23.4899C10.8284 23.4899 7.57015 20.2293 7.57015 16.2071C7.57015 16.1975 7.57017 16.1877 7.57021 16.1781C7.98866 19.2433 10.6152 21.605 13.7931 21.605C17.2619 21.605 20.074 18.7908 20.074 15.3194C20.074 11.8479 17.2619 9.03375 13.7931 9.03375C13.7146 9.03375 13.6365 9.03518 13.5587 9.03804C13.977 8.96321 14.4078 8.92416 14.8477 8.92416ZM19.1801 15.3194C19.1801 12.3419 16.7683 9.92817 13.7931 9.92817C10.8178 9.92817 8.40584 12.3419 8.40584 15.3194C8.40584 18.2968 10.8178 20.7105 13.7931 20.7105C16.7683 20.7105 19.1801 18.2968 19.1801 15.3194Z" fill="white"/>
</svg>
